<svg xmlns="http://www.w3.org/2000/svg" width="751.928" height="599.536" viewBox="0 0 751.928 599.536"><g transform="translate(-859 -315.826)"><path d="M1378.22,393.809c28.1,4.969,62.386,38.766,92.976,69.705,29.775,32.338,55.865,61.82,48.753,90.494-4.968,28.1-38.764,62.376-69.706,92.97-32.339,29.777-61.825,55.875-90.494,48.761-28.1-4.971-62.373-38.768-92.969-69.707-29.779-32.339-55.875-61.823-48.76-90.493,4.966-28.1,38.764-62.375,69.706-92.969C1320.064,412.793,1349.548,386.693,1378.22,393.809Z" transform="translate(-1.905 218.44)" fill="#8a82cd"/><path d="M1373.084,393.771c27.207,4.811,60.4,37.532,90.018,67.487,28.827,31.309,54.087,59.853,47.2,87.614-4.81,27.208-37.53,60.391-67.488,90.012-31.311,28.83-59.858,54.1-87.614,47.209-27.2-4.813-60.388-37.534-90.01-67.488-28.832-31.31-54.1-59.856-47.209-87.613,4.808-27.206,37.53-60.39,67.488-90.01C1316.779,412.151,1345.324,386.882,1373.084,393.771Z" transform="translate(99.481 -76.171)" fill="#e9b8e0"/><path d="M1458.229,394.395c42.033,7.433,93.315,57.985,139.071,104.264,44.537,48.371,83.561,92.469,72.924,135.359-7.431,42.034-57.982,93.3-104.265,139.063-48.373,44.54-92.477,83.577-135.359,72.935-42.026-7.436-93.3-57.988-139.06-104.266-44.543-48.371-83.576-92.474-72.935-135.357,7.427-42.032,57.981-93.3,104.265-139.06C1371.241,422.791,1415.342,383.752,1458.229,394.395Z" transform="translate(-357.838 -76.801)" fill="#6a9fd2"/></g></svg>