<svg xmlns="http://www.w3.org/2000/svg" width="312.249" height="350.416" viewBox="0 0 312.249 350.416">
  <g id="Group_212" data-name="Group 212" transform="translate(-125.91 -80.475)">
    <path id="Path_379" data-name="Path 379" d="M1297.328,393.216c14.016,2.478,31.116,19.335,46.373,34.766,14.85,16.129,27.863,30.833,24.316,45.135-2.478,14.016-19.334,31.11-34.766,46.37-16.13,14.852-30.836,27.868-45.135,24.32-14.014-2.479-31.109-19.336-46.369-34.767-14.853-16.129-27.868-30.835-24.32-45.134,2.477-14.015,19.334-31.11,34.766-46.369C1268.323,402.685,1283.028,389.667,1297.328,393.216Z" transform="translate(-930.448 -113.504)" fill="#8a82cd"/>
    <path id="Path_380" data-name="Path 380" d="M1332.5,393.474c20.14,3.561,44.712,27.784,66.637,49.959,21.34,23.177,40.039,44.307,34.942,64.858-3.561,20.141-27.783,44.705-49.959,66.633-23.178,21.342-44.311,40.046-64.858,34.947-20.137-3.563-44.7-27.786-66.632-49.96-21.343-23.177-40.046-44.31-34.947-64.857,3.559-20.14,27.782-44.705,49.959-66.632C1290.821,407.08,1311.953,388.374,1332.5,393.474Z" transform="translate(-1090.928 -265.661)" fill="#6a9fd2"/>
    <path id="Path_378" data-name="Path 378" d="M1277.844,393.073c10.623,1.878,23.583,14.655,35.148,26.35,11.256,12.225,21.118,23.37,18.43,34.209-1.878,10.623-14.654,23.58-26.351,35.145-12.225,11.257-23.372,21.122-34.209,18.433-10.621-1.879-23.579-14.655-35.145-26.351-11.257-12.225-21.122-23.371-18.433-34.209,1.877-10.623,14.654-23.579,26.351-35.145C1255.86,400.25,1267.005,390.383,1277.844,393.073Z" transform="translate(-911.71 -312.151)" fill="#e9b8e0"/>
  </g>
</svg>
