<svg xmlns="http://www.w3.org/2000/svg" width="165.857" height="41.916" viewBox="0 0 165.857 41.916"><g transform="translate(-710.804 -477.023)"><g transform="translate(760.125 486.377)"><g transform="translate(0.062 0)"><path d="M870.341,518.428l-.066.131a2.047,2.047,0,0,1-1.065.279,1.813,1.813,0,0,1-1.164-.393,4.077,4.077,0,0,1-1.065-1.754l-.082-.213h-4.917l-.885,2.163h-1.9l4.589-10.653h1.36l3.638,8.359c.279.639.426.869.77.869a.652.652,0,0,0,.36-.115l.115.049Zm-4.015-3.327-1.885-4.622-1.885,4.622Z" transform="translate(-859.196 -507.038)" fill="#454370"/><path d="M903.179,517.393l-.066.115a1.71,1.71,0,0,1-.983.279,1.489,1.489,0,0,1-1.524-1.18,3.958,3.958,0,0,1-2.9,1.18,4.295,4.295,0,1,1,2.688-7.588v-3.54l1.655-.246.115.082v9.014c0,.443.082.721.377.721a.422.422,0,0,0,.262-.1l.115.049Zm-2.639-3.9a2.494,2.494,0,0,0-2.557-2.737,2.741,2.741,0,0,0,0,5.474A2.494,2.494,0,0,0,900.541,513.492Z" transform="translate(-882.134 -505.986)" fill="#454370"/><path d="M930.719,515.194l-.459,1.311-.115.049a1.8,1.8,0,0,0-.967-.229c-1.049,0-1.77.819-1.77,2.163v4.687h-1.786v-6.113c0-.442-.066-.721-.377-.721a.423.423,0,0,0-.262.1l-.115-.049-.262-1.213.066-.115a1.7,1.7,0,0,1,1.016-.279,1.4,1.4,0,0,1,1.426,1.049,2.833,2.833,0,0,1,2.245-1.049,3.057,3.057,0,0,1,1.295.279Z" transform="translate(-902.839 -511.572)" fill="#454370"/><path d="M945.292,506.361a1.238,1.238,0,1,1,1.229,1.246A1.238,1.238,0,0,1,945.292,506.361Zm2.131,10.375v-8.195h-1.787v8.195Z" transform="translate(-916.641 -505.132)" fill="#454370"/><path d="M965.258,522.979l-.065.115a1.711,1.711,0,0,1-.984.279,1.474,1.474,0,0,1-1.491-1.065,4.072,4.072,0,0,1-2.8,1.065c-1.688,0-3.245-.934-3.245-2.7,0-1.819,1.639-2.655,3.655-2.655a6.168,6.168,0,0,1,2.163.377v-.459c0-1.18-1.065-1.754-2.2-1.754a3.112,3.112,0,0,0-2.229.951h-.131l-.9-.852v-.131a4.772,4.772,0,0,1,3.425-1.361c1.77,0,3.786.787,3.786,3.147v3.163c0,.443.082.721.377.721a.423.423,0,0,0,.262-.1l.115.049Zm-2.77-3.376a5.509,5.509,0,0,0-1.934-.377c-1.295,0-2.1.557-2.1,1.442,0,.934.885,1.393,1.819,1.393a2.028,2.028,0,0,0,2.212-1.852Z" transform="translate(-924.232 -511.572)" fill="#454370"/><path d="M993.136,518.242v4.933H991.35V518.39a1.878,1.878,0,0,0-1.967-2.065,1.953,1.953,0,0,0-2.065,2.065v4.785h-1.8v-6.113c0-.442-.066-.721-.377-.721a.422.422,0,0,0-.262.1l-.115-.049-.262-1.213.066-.115a1.781,1.781,0,0,1,1.016-.279,1.434,1.434,0,0,1,1.475,1.033,3.723,3.723,0,0,1,2.671-1.033A3.239,3.239,0,0,1,993.136,518.242Z" transform="translate(-942.8 -511.572)" fill="#454370"/><path d="M1023.575,522.979l-.066.115a1.708,1.708,0,0,1-.983.279,1.474,1.474,0,0,1-1.492-1.065,4.072,4.072,0,0,1-2.8,1.065c-1.688,0-3.245-.934-3.245-2.7,0-1.819,1.639-2.655,3.655-2.655a6.17,6.17,0,0,1,2.163.377v-.459c0-1.18-1.066-1.754-2.2-1.754a3.112,3.112,0,0,0-2.229.951h-.131l-.9-.852v-.131a4.771,4.771,0,0,1,3.425-1.361c1.77,0,3.786.787,3.786,3.147v3.163c0,.443.082.721.377.721a.422.422,0,0,0,.262-.1l.115.049Zm-2.77-3.376a5.512,5.512,0,0,0-1.934-.377c-1.295,0-2.1.557-2.1,1.442,0,.934.885,1.393,1.819,1.393a2.028,2.028,0,0,0,2.213-1.852Z" transform="translate(-963.142 -511.572)" fill="#454370"/><path d="M1055.769,518.641,1057,507.988h1.213l3.557,8.162,3.54-8.162h1.213l.934,8.227c.082.77.229,1,.541,1a.475.475,0,0,0,.328-.115l.131.049.312,1.278-.066.131a1.908,1.908,0,0,1-1.016.279,1.789,1.789,0,0,1-1.852-1.786l-.59-5.277-2.95,6.867h-1.065l-3-6.916-.7,6.916Z" transform="translate(-990.353 -507.038)" fill="#454370"/><path d="M1097.98,506.361a1.237,1.237,0,1,1,1.229,1.246A1.238,1.238,0,0,1,1097.98,506.361Zm2.13,10.375v-8.195h-1.786v8.195Z" transform="translate(-1018.516 -505.132)" fill="#454370"/><path d="M1119.044,515.177l-.262,1.213-.115.049a.422.422,0,0,0-.262-.1c-.312,0-.377.279-.377.721v4.687c0,2.7-1.983,3.917-4.294,3.917a4.714,4.714,0,0,1-3.8-1.672v-.114l.82-.983h.115a3.572,3.572,0,0,0,2.885,1.36,2.258,2.258,0,0,0,2.557-2.294v-.377a4.148,4.148,0,0,1-2.671.918,3.864,3.864,0,1,1,.016-7.72,4.143,4.143,0,0,1,2.835,1.065,1.436,1.436,0,0,1,1.492-1.065,1.725,1.725,0,0,1,1,.279Zm-2.7,3.475a2.467,2.467,0,0,0-4.933-.016,2.467,2.467,0,0,0,4.933.016Z" transform="translate(-1026.272 -511.572)" fill="#454370"/><path d="M1150.421,523.373l-.066.115a1.671,1.671,0,0,1-1.016.279,1.445,1.445,0,0,1-1.458-1.016,3.549,3.549,0,0,1-2.541,1.016,3.133,3.133,0,0,1-3.376-3.344v-5.048h1.786v4.9a1.767,1.767,0,0,0,1.885,1.95,1.937,1.937,0,0,0,2-2.065v-4.786h1.77v6.113c0,.443.082.721.377.721a.423.423,0,0,0,.262-.1l.115.049Z" transform="translate(-1047.863 -511.966)" fill="#454370"/><path d="M1172.056,519.553a2.628,2.628,0,0,0,2.786,2.393,3.5,3.5,0,0,0,2.622-1.1h.115l.934.836v.131a4.769,4.769,0,0,1-3.7,1.557,4.223,4.223,0,0,1-4.523-4.261,4.149,4.149,0,0,1,4.294-4.327,4.05,4.05,0,0,1,4.228,4.179,2.923,2.923,0,0,1-.049.59Zm0-1.147h4.983a2.315,2.315,0,0,0-2.442-2.229A2.407,2.407,0,0,0,1172.056,518.406Z" transform="translate(-1066.76 -511.572)" fill="#454370"/><path d="M1200.774,506.658l1.655-.246.131.082v9.014c0,.443.066.721.36.721a.434.434,0,0,0,.279-.1l.115.049.262,1.213-.065.115a1.8,1.8,0,0,1-1.033.279c-1.131,0-1.7-.754-1.7-1.885Z" transform="translate(-1087.102 -505.986)" fill="#454370"/></g><g transform="translate(0 17.831)"><path d="M859.01,560.782a1.969,1.969,0,1,1,1.957,2.063A1.941,1.941,0,0,1,859.01,560.782Zm3.374,0a1.414,1.414,0,1,0-2.814,0,1.413,1.413,0,1,0,2.814,0Z" transform="translate(-859.01 -558.713)" fill="#6969af"/><path d="M874.924,558.971v.494h-1.285v3.459h-.54v-3.459H871.82v-.494Z" transform="translate(-867.557 -558.885)" fill="#6969af"/><path d="M882.175,560.782a1.969,1.969,0,1,1,1.957,2.063A1.941,1.941,0,0,1,882.175,560.782Zm3.374,0a1.414,1.414,0,1,0-2.814,0,1.413,1.413,0,1,0,2.814,0Z" transform="translate(-874.466 -558.713)" fill="#6969af"/><path d="M899.619,560.289a1.213,1.213,0,0,1-.87,1.232v.026l.969,1.272v.105h-.586l-.989-1.311h-1.074v1.311h-.54v-3.953h1.581C899.045,558.971,899.619,559.452,899.619,560.289Zm-1.529-.824h-1.021v1.661h1.068c.54,0,.922-.264.922-.824S898.676,559.465,898.09,559.465Z" transform="translate(-884.043 -558.885)" fill="#6969af"/><path d="M911.656,560.289a1.213,1.213,0,0,1-.87,1.232v.026l.969,1.272v.105h-.587l-.988-1.311h-1.074v1.311h-.541v-3.953h1.581C911.083,558.971,911.656,559.452,911.656,560.289Zm-1.529-.824h-1.021v1.661h1.067c.54,0,.922-.264.922-.824S910.714,559.465,910.128,559.465Z" transform="translate(-892.074 -558.885)" fill="#6969af"/><path d="M920.6,562.924v-3.953h.54v3.953Z" transform="translate(-900.106 -558.885)" fill="#6969af"/><path d="M928.5,562.924l-2.405-3v3h-.54v-3.953h.4l2.4,2.972v-2.972h.547v3.953Z" transform="translate(-903.408 -558.885)" fill="#6969af"/><path d="M938.164,560.782a1.969,1.969,0,1,1,1.957,2.063A1.941,1.941,0,0,1,938.164,560.782Zm3.374,0a1.414,1.414,0,1,0-2.814,0,1.413,1.413,0,1,0,2.814,0Z" transform="translate(-911.823 -558.713)" fill="#6969af"/><path d="M952.517,558.971h.54v3.46h2.01v.494h-2.55Z" transform="translate(-921.399 -558.885)" fill="#6969af"/><path d="M964.266,562.924l-.349-.85h-2.01l-.349.85h-.567l1.661-3.953h.52l1.667,3.953Zm-.547-1.331-.8-1.957-.811,1.957Z" transform="translate(-927.053 -558.885)" fill="#6969af"/><path d="M977.525,560.289a1.213,1.213,0,0,1-.87,1.232v.026l.969,1.272v.105h-.587l-.988-1.311h-1.074v1.311h-.54v-3.953h1.581C976.951,558.971,977.525,559.452,977.525,560.289ZM976,559.465h-1.021v1.661h1.067c.54,0,.922-.264.922-.824S976.582,559.465,976,559.465Z" transform="translate(-936.023 -558.885)" fill="#6969af"/><path d="M986.471,562.924v-3.953h.54v3.953Z" transform="translate(-944.054 -558.885)" fill="#6969af"/><path d="M994.366,562.924l-2.405-3v3h-.54v-3.953h.4l2.4,2.972v-2.972h.547v3.953Z" transform="translate(-947.357 -558.885)" fill="#6969af"/><path d="M1005.9,561.039v-.481h1.878v.329a1.742,1.742,0,0,1-1.786,1.957,2.068,2.068,0,0,1,.02-4.132,1.846,1.846,0,0,1,1.4.514l-.323.415a1.532,1.532,0,0,0-1.081-.415,1.434,1.434,0,0,0-1.417,1.555,1.417,1.417,0,0,0,1.4,1.548,1.175,1.175,0,0,0,1.219-1.265v-.026Z" transform="translate(-955.771 -558.713)" fill="#6969af"/><path d="M1016.881,560.782a1.969,1.969,0,1,1,1.957,2.063A1.941,1.941,0,0,1,1016.881,560.782Zm3.374,0a1.414,1.414,0,1,0-2.814,0,1.413,1.413,0,1,0,2.814,0Z" transform="translate(-964.344 -558.713)" fill="#6969af"/><path d="M1031.235,558.971h.54v3.46h2.01v.494h-2.55Z" transform="translate(-973.921 -558.885)" fill="#6969af"/><path d="M1039.847,560.782a1.969,1.969,0,1,1,1.957,2.063A1.941,1.941,0,0,1,1039.847,560.782Zm3.374,0a1.414,1.414,0,1,0-2.814,0,1.413,1.413,0,1,0,2.814,0Z" transform="translate(-979.667 -558.713)" fill="#6969af"/><path d="M1055.294,561.039v-.481h1.878v.329a1.742,1.742,0,0,1-1.786,1.957,2.068,2.068,0,0,1,.02-4.132,1.845,1.845,0,0,1,1.4.514l-.323.415a1.531,1.531,0,0,0-1.08-.415,1.434,1.434,0,0,0-1.417,1.555,1.417,1.417,0,0,0,1.4,1.548,1.175,1.175,0,0,0,1.219-1.265v-.026Z" transform="translate(-988.729 -558.713)" fill="#6969af"/><path d="M1067.05,562.924v-3.953h.54v3.953Z" transform="translate(-997.818 -558.885)" fill="#6969af"/><path d="M1072.63,562.337c.62,0,.883-.257.883-.626,0-.336-.2-.508-.982-.738-.89-.27-1.3-.56-1.3-1.173,0-.659.52-1.088,1.423-1.088a1.886,1.886,0,0,1,1.331.4l-.3.448a1.586,1.586,0,0,0-1.034-.336c-.5,0-.844.2-.844.573,0,.3.231.448.969.666.982.283,1.324.632,1.324,1.232,0,.652-.488,1.153-1.456,1.153a2.022,2.022,0,0,1-1.437-.481l.3-.408A1.775,1.775,0,0,0,1072.63,562.337Z" transform="translate(-1000.591 -558.713)" fill="#6969af"/><path d="M1084.388,558.971v.494H1083.1v3.459h-.54v-3.459h-1.278v-.494Z" transform="translate(-1007.315 -558.885)" fill="#6969af"/><path d="M1093.449,562.924l-.349-.85h-2.01l-.349.85h-.567l1.661-3.953h.521l1.667,3.953Zm-.547-1.331-.8-1.957-.811,1.957Z" transform="translate(-1013.246 -558.885)" fill="#6969af"/></g></g><g transform="translate(710.804 477.023)"><g transform="translate(8.638 29.021)"><path d="M755.965,569.261a25.132,25.132,0,0,1-3.974,4.605c-2.111,1.943-4.034,3.647-5.9,3.181-1.834-.323-4.07-2.53-6.067-4.547-1.943-2.111-3.646-4.034-3.181-5.9a6.028,6.028,0,0,1,1.168-2.365,12.375,12.375,0,0,0,5.2,2.98c2.12.526,4.282-.669,6.562-2.51C751.863,566.747,754.045,568.646,755.965,569.261Z" transform="translate(-736.76 -564.23)" fill="#e19fc9"/></g><g transform="translate(0 0)"><path d="M752.27,552.429c-2.28,1.841-4.442,3.036-6.562,2.51a12.375,12.375,0,0,1-5.2-2.98,33.583,33.583,0,0,1,3.379-3.7,23.684,23.684,0,0,1,2.924-2.418,23.79,23.79,0,0,0,3.912,5.044C751.227,551.395,751.746,551.919,752.27,552.429Z" transform="translate(-730.62 -522.937)" fill="#eddbf5"/><path d="M737.752,484.613a24.293,24.293,0,0,0-4.966,3.872c-2.78,2.75-5.818,5.829-6.264,8.354a4.473,4.473,0,0,0,.468,3.085,23.684,23.684,0,0,0-2.924,2.418,33.583,33.583,0,0,0-3.379,3.7c-1.551-1.3-3.123-2.873-4.612-4.38-3.143-3.413-5.9-6.527-5.147-9.553.524-2.967,4.093-6.584,7.358-9.814,3.415-3.145,6.529-5.9,9.554-5.149,2.967.526,6.586,4.095,9.816,7.36C737.688,484.544,737.721,484.577,737.752,484.613Z" transform="translate(-710.804 -477.023)" fill="#6a9fd2"/></g><g transform="translate(15.612 6.975)"><path d="M768.283,547.726l-.383.379c-1.023.943-2.017,1.85-2.991,2.639-.524-.51-1.043-1.034-1.551-1.547a23.787,23.787,0,0,1-3.912-5.044,3.8,3.8,0,0,1,2.98-.762C764.195,543.7,766.339,545.769,768.283,547.726Z" transform="translate(-758.87 -528.227)" fill="#fff"/><path d="M774.1,509.278c-.5,2.851-3.818,6.3-6.974,9.435-1.943-1.957-4.088-4.023-5.858-4.336a3.8,3.8,0,0,0-2.98.762,4.473,4.473,0,0,1-.468-3.085c.446-2.525,3.484-5.6,6.264-8.354a24.29,24.29,0,0,1,4.966-3.872C772.157,503.2,774.849,506.283,774.1,509.278Z" transform="translate(-757.718 -499.215)" fill="#a1bfef"/><path d="M782.627,562.691a4.581,4.581,0,0,1-.573,1.462c-1.919-.615-4.1-2.515-6.192-4.56.974-.789,1.968-1.7,2.991-2.639l.383-.379c.069.071.14.14.21.212C781.39,558.9,783.093,560.821,782.627,562.691Z" transform="translate(-769.824 -537.076)" fill="#f1d0f4"/><path d="M803.823,512.481c-.446,2.526-3.482,5.606-6.261,8.354-2.906,2.675-5.557,5.02-8.131,4.38a4.383,4.383,0,0,1-.611-.156,4.582,4.582,0,0,0,.573-1.462c.466-1.87-1.237-3.794-3.181-5.9-.069-.071-.14-.14-.21-.212,3.156-3.132,6.471-6.584,6.974-9.435.744-3-1.948-6.074-5.051-9.448a4.513,4.513,0,0,1,3.163-.508c2.526.446,5.606,3.482,8.354,6.264C802.118,507.256,804.463,509.906,803.823,512.481Z" transform="translate(-776.59 -497.981)" fill="#5e56a5"/></g><g transform="translate(0.08 4.936)"><path d="M733.807,491.855c-.047.045-.1.089-.145.134a13.322,13.322,0,0,1-.147,21.842c.047.045.091.089.138.131a13.5,13.5,0,0,0,.154-22.107Z" transform="translate(-726.037 -491.855)" fill="#fff"/><path d="M727.236,498.044c-.094.094-.185.19-.276.283a10.244,10.244,0,0,1-.163,17.415l.279.283a10.627,10.627,0,0,0,.16-17.981Z" transform="translate(-721.554 -495.984)" fill="#fff"/><path d="M721,504.494c-.134.152-.265.3-.395.453a7.17,7.17,0,0,1-.131,12.754c.127.151.259.3.392.457A7.756,7.756,0,0,0,721,504.494Z" transform="translate(-717.336 -500.288)" fill="#fff"/><path d="M715.3,511.393c-.158.221-.307.442-.448.66a4.1,4.1,0,0,1-.136,7.723c.138.223.29.446.45.671a4.877,4.877,0,0,0,.134-9.054Z" transform="translate(-713.496 -504.891)" fill="#fff"/><path d="M711.4,519.063a5.942,5.942,0,0,0-.285.936,1.025,1.025,0,0,1-.076,2.035,5.42,5.42,0,0,0,.256.949,2,2,0,0,0,.1-3.921Z" transform="translate(-711.043 -510.009)" fill="#fff"/></g></g></g></svg>