<svg xmlns="http://www.w3.org/2000/svg" width="20.357" height="20.357" viewBox="0 0 20.357 20.357"><path d="M20.357,9.916A10.01,10.01,0,0,1,5.533,18.6L0,20.357l1.8-5.32A9.812,9.812,0,0,1,.37,9.916a9.994,9.994,0,0,1,19.987,0ZM10.363,1.579a8.379,8.379,0,0,0-8.4,8.337,8.249,8.249,0,0,0,1.6,4.888l-1.05,3.1,3.229-1.026A8.41,8.41,0,0,0,18.766,9.917,8.38,8.38,0,0,0,10.363,1.579ZM15.41,12.2c-.062-.1-.225-.162-.47-.284s-1.45-.71-1.674-.791-.388-.122-.551.121-.633.791-.776.953-.286.183-.531.061a6.705,6.705,0,0,1-1.97-1.206A7.328,7.328,0,0,1,8.076,9.372c-.143-.243-.015-.375.107-.5s.245-.284.368-.426A1.629,1.629,0,0,0,8.8,8.045a.443.443,0,0,0-.02-.426C8.714,7.5,8.224,6.3,8.02,5.815s-.408-.405-.551-.405-.306-.02-.47-.02a.9.9,0,0,0-.653.3,2.718,2.718,0,0,0-.857,2.027,4.7,4.7,0,0,0,1,2.514A10.014,10.014,0,0,0,10.674,13.9c2.491.973,2.491.648,2.94.608a2.478,2.478,0,0,0,1.654-1.155A2.026,2.026,0,0,0,15.41,12.2Z" fill="#5e56a5"/></svg>