<svg xmlns="http://www.w3.org/2000/svg" width="20.357" height="20.357" viewBox="0 0 20.357 20.357"><defs><style>.a{fill:#ffffff;}</style></defs><path class="a" d="M14.739,0H5.618A5.624,5.624,0,0,0,0,5.618v9.121a5.624,5.624,0,0,0,5.618,5.618h9.121a5.624,5.624,0,0,0,5.618-5.618V5.618A5.624,5.624,0,0,0,14.739,0Zm3.812,14.739a3.816,3.816,0,0,1-3.812,3.812H5.618a3.816,3.816,0,0,1-3.811-3.812V5.618A3.816,3.816,0,0,1,5.618,1.806h9.121a3.816,3.816,0,0,1,3.812,3.812v9.121Z"/><path class="a" d="M46.2,40.97a5.235,5.235,0,1,0,5.235,5.235A5.241,5.241,0,0,0,46.2,40.97Zm0,8.667A3.432,3.432,0,1,1,49.635,46.2,3.436,3.436,0,0,1,46.2,49.637Z" transform="translate(-36.025 -36.026)"/><path class="a" d="M120.383,28.251a1.461,1.461,0,1,0,1.034.428A1.467,1.467,0,0,0,120.383,28.251Z" transform="translate(-104.824 -24.902)"/></svg>