<svg xmlns="http://www.w3.org/2000/svg" width="279.085" height="70.546" viewBox="0 0 279.085 70.546"><defs><style>.a{fill:#fff;}</style></defs><g transform="translate(82.991 15.748)"><g transform="translate(0.104)"><path class="a" d="M1528.672,255.555l-.11.221a3.444,3.444,0,0,1-1.792.469,3.05,3.05,0,0,1-1.958-.662,6.858,6.858,0,0,1-1.792-2.951l-.138-.358h-8.274l-1.49,3.64h-3.2l7.721-17.926h2.289l6.122,14.065c.469,1.076.718,1.462,1.3,1.462a1.1,1.1,0,0,0,.607-.193l.193.083Zm-6.756-5.6-3.171-7.777-3.172,7.777Z" transform="translate(-1509.919 -236.389)"/><path class="a" d="M1560.459,254.889l-.11.193a2.877,2.877,0,0,1-1.655.469,2.5,2.5,0,0,1-2.564-1.986,6.66,6.66,0,0,1-4.881,1.986,7.226,7.226,0,1,1,4.523-12.768v-5.957l2.785-.414.193.138v15.168c0,.745.138,1.213.634,1.213a.71.71,0,0,0,.441-.166l.193.083Zm-4.44-6.563c0-3.034-1.958-4.606-4.3-4.606a4.613,4.613,0,0,0,0,9.211C1554.089,252.931,1556.019,251.332,1556.019,248.326Z" transform="translate(-1525.047 -235.695)"/><path class="a" d="M1585.616,245.474l-.772,2.206-.193.082a3.025,3.025,0,0,0-1.627-.386c-1.765,0-2.978,1.379-2.978,3.64V258.9h-3.006V248.618c0-.744-.11-1.213-.634-1.213a.71.71,0,0,0-.441.166l-.193-.083-.441-2.041.11-.193a2.869,2.869,0,0,1,1.71-.469,2.353,2.353,0,0,1,2.4,1.765,4.768,4.768,0,0,1,3.778-1.765,5.141,5.141,0,0,1,2.179.469Z" transform="translate(-1538.701 -239.379)"/><path class="a" d="M1596.016,237.2a2.082,2.082,0,1,1,2.068,2.1A2.083,2.083,0,0,1,1596.016,237.2Zm3.585,17.457V240.868H1596.6v13.789Z" transform="translate(-1547.804 -235.132)"/><path class="a" d="M1621.844,258.573l-.11.193a2.876,2.876,0,0,1-1.655.469,2.481,2.481,0,0,1-2.51-1.792,6.852,6.852,0,0,1-4.716,1.792c-2.84,0-5.46-1.572-5.46-4.55,0-3.061,2.758-4.467,6.15-4.467a10.376,10.376,0,0,1,3.64.634v-.773c0-1.986-1.792-2.951-3.7-2.951a5.236,5.236,0,0,0-3.751,1.6h-.221L1608,247.294v-.22a8.032,8.032,0,0,1,5.764-2.29c2.978,0,6.37,1.324,6.37,5.3V255.4c0,.745.138,1.213.634,1.213a.712.712,0,0,0,.441-.166l.193.083Zm-4.661-5.681a9.271,9.271,0,0,0-3.254-.634c-2.178,0-3.53.938-3.53,2.427,0,1.572,1.49,2.344,3.062,2.344,1.9,0,3.723-1.186,3.723-3.116Z" transform="translate(-1552.81 -239.379)"/><path class="a" d="M1649.755,250.6v8.3h-3.006v-8.052a3.159,3.159,0,0,0-3.309-3.475,3.285,3.285,0,0,0-3.474,3.475V258.9h-3.033V248.618c0-.744-.111-1.213-.634-1.213a.71.71,0,0,0-.441.166l-.193-.083-.441-2.041.11-.193a3,3,0,0,1,1.71-.469,2.412,2.412,0,0,1,2.482,1.738,6.265,6.265,0,0,1,4.495-1.738A5.45,5.45,0,0,1,1649.755,250.6Z" transform="translate(-1565.056 -239.379)"/><path class="a" d="M1680.161,258.573l-.11.193a2.876,2.876,0,0,1-1.655.469,2.481,2.481,0,0,1-2.51-1.792,6.852,6.852,0,0,1-4.716,1.792c-2.841,0-5.461-1.572-5.461-4.55,0-3.061,2.758-4.467,6.15-4.467a10.378,10.378,0,0,1,3.64.634v-.773c0-1.986-1.793-2.951-3.7-2.951a5.236,5.236,0,0,0-3.751,1.6h-.221l-1.516-1.434v-.22a8.029,8.029,0,0,1,5.764-2.29c2.979,0,6.371,1.324,6.371,5.3V255.4c0,.745.138,1.213.634,1.213a.711.711,0,0,0,.441-.166l.193.083Zm-4.661-5.681a9.272,9.272,0,0,0-3.255-.634c-2.178,0-3.53.938-3.53,2.427,0,1.572,1.489,2.344,3.061,2.344,1.9,0,3.723-1.186,3.723-3.116Z" transform="translate(-1578.472 -239.379)"/><path class="a" d="M1706.492,255.914l2.068-17.926h2.041l5.984,13.734,5.957-13.734h2.041l1.572,13.844c.138,1.3.386,1.682.91,1.682a.8.8,0,0,0,.551-.193l.221.083.524,2.151-.11.221a3.209,3.209,0,0,1-1.71.469c-1.71,0-2.868-1.021-3.116-3.006l-.994-8.88-4.964,11.555h-1.793l-5.047-11.638-1.185,11.638Z" transform="translate(-1596.417 -236.389)"/><path class="a" d="M1748.7,237.2a2.082,2.082,0,1,1,2.068,2.1A2.083,2.083,0,0,1,1748.7,237.2Zm3.585,17.457V240.868h-3.005v13.789Z" transform="translate(-1614.991 -235.132)"/><path class="a" d="M1776.212,245.446l-.441,2.041-.193.083a.71.71,0,0,0-.441-.166c-.524,0-.634.469-.634,1.213V256.5c0,4.551-3.337,6.591-7.225,6.591a7.933,7.933,0,0,1-6.4-2.813v-.193l1.379-1.655h.193a6.011,6.011,0,0,0,4.854,2.289c2.372,0,4.3-1.213,4.3-3.861v-.635a6.98,6.98,0,0,1-4.495,1.544,6.5,6.5,0,1,1,.027-12.99,6.972,6.972,0,0,1,4.771,1.792,2.417,2.417,0,0,1,2.51-1.792,2.9,2.9,0,0,1,1.682.469Zm-4.55,5.847a4.151,4.151,0,0,0-8.3-.027,4.151,4.151,0,0,0,8.3.027Z" transform="translate(-1620.106 -239.379)"/><path class="a" d="M1806.918,258.833l-.111.193a2.812,2.812,0,0,1-1.709.469,2.431,2.431,0,0,1-2.455-1.71,5.972,5.972,0,0,1-4.275,1.71,5.271,5.271,0,0,1-5.681-5.626v-8.494h3.006v8.246a2.973,2.973,0,0,0,3.171,3.282,3.259,3.259,0,0,0,3.364-3.475v-8.054h2.979v10.287c0,.745.138,1.213.634,1.213a.711.711,0,0,0,.442-.166l.193.083Z" transform="translate(-1634.345 -239.639)"/><path class="a" d="M1823.988,252.809a4.421,4.421,0,0,0,4.688,4.026,5.89,5.89,0,0,0,4.413-1.848h.193l1.572,1.407v.22a8.024,8.024,0,0,1-6.233,2.62c-4,0-7.611-2.537-7.611-7.17a6.981,6.981,0,0,1,7.225-7.281,6.815,6.815,0,0,1,7.115,7.033,4.911,4.911,0,0,1-.083.993Zm0-1.93h8.383a3.9,3.9,0,0,0-4.109-3.751A4.048,4.048,0,0,0,1823.988,250.879Z" transform="translate(-1646.807 -239.379)"/><path class="a" d="M1851.5,236.826l2.785-.414.221.138v15.168c0,.745.11,1.213.607,1.213a.729.729,0,0,0,.469-.166l.193.083.441,2.041-.11.193a3.034,3.034,0,0,1-1.738.469c-1.9,0-2.868-1.269-2.868-3.171Z" transform="translate(-1660.223 -235.695)"/></g><g transform="translate(0 30.004)"><path class="a" d="M1509.734,292.195a3.313,3.313,0,1,1,3.293,3.471A3.266,3.266,0,0,1,1509.734,292.195Zm5.677,0a2.379,2.379,0,1,0-4.735,0,2.377,2.377,0,1,0,4.735,0Z" transform="translate(-1509.734 -288.713)"/><path class="a" d="M1527.765,288.971v.832H1525.6v5.821h-.909V289.8h-2.151v-.832Z" transform="translate(-1515.37 -288.827)"/><path class="a" d="M1532.9,292.195a3.313,3.313,0,1,1,3.293,3.471A3.266,3.266,0,0,1,1532.9,292.195Zm5.677,0a2.379,2.379,0,1,0-4.734,0,2.377,2.377,0,1,0,4.734,0Z" transform="translate(-1519.927 -288.713)"/><path class="a" d="M1552.451,291.188a2.04,2.04,0,0,1-1.464,2.074v.044l1.63,2.14v.178h-.987l-1.663-2.206h-1.808v2.206h-.909v-6.652h2.661C1551.487,288.971,1552.451,289.78,1552.451,291.188Zm-2.572-1.386h-1.719V292.6h1.8c.909,0,1.552-.444,1.552-1.386S1550.866,289.8,1549.879,289.8Z" transform="translate(-1526.243 -288.827)"/><path class="a" d="M1564.489,291.188a2.041,2.041,0,0,1-1.464,2.074v.044l1.63,2.14v.178h-.987l-1.663-2.206H1560.2v2.206h-.909v-6.652h2.661C1563.525,288.971,1564.489,289.78,1564.489,291.188Zm-2.572-1.386H1560.2V292.6h1.8c.909,0,1.553-.444,1.553-1.386S1562.9,289.8,1561.917,289.8Z" transform="translate(-1531.539 -288.827)"/><path class="a" d="M1571.326,295.623v-6.652h.909v6.652Z" transform="translate(-1536.836 -288.827)"/><path class="a" d="M1581.231,295.623l-4.047-5.045v5.045h-.909v-6.652h.676l4.036,5v-5h.92v6.652Z" transform="translate(-1539.014 -288.827)"/><path class="a" d="M1588.887,292.195a3.313,3.313,0,1,1,3.293,3.471A3.266,3.266,0,0,1,1588.887,292.195Zm5.677,0a2.379,2.379,0,1,0-4.735,0,2.377,2.377,0,1,0,4.735,0Z" transform="translate(-1544.564 -288.713)"/><path class="a" d="M1603.24,288.971h.909v5.821h3.382v.831h-4.291Z" transform="translate(-1550.879 -288.827)"/><path class="a" d="M1617.225,295.623l-.587-1.43h-3.382l-.587,1.43h-.954l2.794-6.652h.876l2.806,6.652Zm-.92-2.24-1.353-3.293-1.364,3.293Z" transform="translate(-1554.608 -288.827)"/><path class="a" d="M1630.358,291.188a2.041,2.041,0,0,1-1.464,2.074v.044l1.63,2.14v.178h-.987l-1.663-2.206h-1.807v2.206h-.91v-6.652h2.661C1629.393,288.971,1630.358,289.78,1630.358,291.188Zm-2.573-1.386h-1.718V292.6h1.8c.91,0,1.553-.444,1.553-1.386S1628.772,289.8,1627.785,289.8Z" transform="translate(-1560.523 -288.827)"/><path class="a" d="M1637.194,295.623v-6.652h.91v6.652Z" transform="translate(-1565.82 -288.827)"/><path class="a" d="M1647.1,295.623l-4.047-5.045v5.045h-.909v-6.652h.677l4.036,5v-5h.92v6.652Z" transform="translate(-1567.998 -288.827)"/><path class="a" d="M1657.892,292.628v-.81h3.161v.554c0,2-1.12,3.293-3,3.293a3.481,3.481,0,0,1,.033-6.953,3.105,3.105,0,0,1,2.361.865l-.543.7a2.577,2.577,0,0,0-1.818-.7,2.413,2.413,0,0,0-2.384,2.617,2.384,2.384,0,0,0,2.351,2.606,1.976,1.976,0,0,0,2.051-2.129v-.044Z" transform="translate(-1573.547 -288.713)"/><path class="a" d="M1667.6,292.195a3.313,3.313,0,1,1,3.293,3.471A3.267,3.267,0,0,1,1667.6,292.195Zm5.677,0a2.379,2.379,0,1,0-4.735,0,2.377,2.377,0,1,0,4.735,0Z" transform="translate(-1579.201 -288.713)"/><path class="a" d="M1681.958,288.971h.909v5.821h3.381v.831h-4.291Z" transform="translate(-1585.518 -288.827)"/><path class="a" d="M1690.57,292.195a3.313,3.313,0,1,1,3.293,3.471A3.267,3.267,0,0,1,1690.57,292.195Zm5.677,0a2.379,2.379,0,1,0-4.735,0,2.377,2.377,0,1,0,4.735,0Z" transform="translate(-1589.307 -288.713)"/><path class="a" d="M1707.29,292.628v-.81h3.16v.554c0,2-1.12,3.293-3.005,3.293a3.481,3.481,0,0,1,.033-6.953,3.108,3.108,0,0,1,2.362.865l-.544.7a2.577,2.577,0,0,0-1.818-.7,2.413,2.413,0,0,0-2.384,2.617,2.384,2.384,0,0,0,2.35,2.606,1.976,1.976,0,0,0,2.051-2.129v-.044Z" transform="translate(-1595.284 -288.713)"/><path class="a" d="M1717.773,295.623v-6.652h.91v6.652Z" transform="translate(-1601.277 -288.827)"/><path class="a" d="M1724.325,294.812c1.043,0,1.486-.432,1.486-1.053,0-.566-.344-.854-1.652-1.242-1.5-.454-2.2-.942-2.2-1.973,0-1.109.876-1.83,2.4-1.83a3.172,3.172,0,0,1,2.24.666l-.5.754a2.669,2.669,0,0,0-1.74-.566c-.843,0-1.42.344-1.42.965,0,.5.389.754,1.63,1.12,1.652.476,2.229,1.064,2.229,2.074,0,1.1-.82,1.94-2.45,1.94a3.4,3.4,0,0,1-2.417-.81l.5-.687A2.989,2.989,0,0,0,1724.325,294.812Z" transform="translate(-1603.106 -288.713)"/><path class="a" d="M1737.23,288.971v.832h-2.162v5.821h-.909V289.8h-2.151v-.832Z" transform="translate(-1607.541 -288.827)"/><path class="a" d="M1746.407,295.623l-.588-1.43h-3.382l-.588,1.43h-.953l2.794-6.652h.876l2.806,6.652Zm-.92-2.24-1.353-3.293-1.364,3.293Z" transform="translate(-1611.452 -288.827)"/></g></g><path class="a" d="M1426.222,229.34c-4.062-4.108-9.624-9.732-14.1-10.532a7.786,7.786,0,0,0-5.259.757c-4.77-4.824-11.3-11.417-16.5-12.338-5.394-1.338-10.913,3.745-16.261,8.67-4.826,4.771-11.435,11.306-12.356,16.521-1.338,5.394,3.744,10.914,8.669,16.261,2.205,2.231,4.788,4.843,7.446,7.1a10.012,10.012,0,0,0-1.808,3.781c-.846,3.407,2.322,6.847,5.4,10.184,2.962,3,7.02,7.1,10.277,7.674a4.728,4.728,0,0,0,1.144.139c3.031,0,6.077-2.8,9.041-5.534a44.007,44.007,0,0,0,6.517-7.493,7.58,7.58,0,0,0,.77.181,6.327,6.327,0,0,0,1.539.186c4.121,0,8.294-3.842,12.352-7.579,4.111-4.065,9.742-9.632,10.53-14.085C1434.761,238.614,1430.425,233.9,1426.222,229.34Zm-22.572,22.733c2.931,3.183,5.961,6.474,5.206,9.517a7,7,0,0,1-.774,2.046c-3.03-1.1-6.5-4.128-9.572-7.111,1.572-1.294,3.136-2.734,4.686-4.161l.375-.371Zm-.966-.246c-1.558,1.435-3.132,2.883-4.708,4.176-.816-.8-1.6-1.595-2.331-2.336-2.441-2.651-4.932-5.357-6.3-8.018a6.762,6.762,0,0,1,3.429-1.159,3.956,3.956,0,0,1,.956.116l.025.005c2.843.5,6.478,4.018,9.294,6.855Zm-5.288,4.646c-3.482,2.767-6.963,4.665-10.281,3.841l-.025-.006c-2.515-.445-5.39-2.307-8.223-4.652a57.52,57.52,0,0,1,5.372-5.838,41.9,41.9,0,0,1,4.476-3.762c1.425,2.726,3.931,5.45,6.394,8.124C1395.828,254.908,1396.6,255.683,1397.4,256.472Zm-3.5-12.589a6.438,6.438,0,0,0-4.876,1.091,6.949,6.949,0,0,1-.579-4.53c.751-4.243,6.285-9.716,10.317-13.7,2.627-2.419,5.307-4.885,7.939-6.263,4.67,5.074,9.345,10.305,8.129,15.212-.831,4.7-6.618,10.66-11.249,15.254C1400.687,248.033,1396.957,244.432,1393.9,243.883Zm-31.426-11.311c.013-.077.032-.156.049-.235a1.7,1.7,0,0,1-.117,3.211A7.052,7.052,0,0,1,1362.471,232.571Zm2.747,1.725a3.334,3.334,0,0,0-2.222-3.517,17.729,17.729,0,0,1,1.651-3.106,6.82,6.82,0,0,1-.225,12.589,15.958,15.958,0,0,1-1.591-3.143A3.336,3.336,0,0,0,1365.218,234.3Zm4.763.533a8.138,8.138,0,0,0-4.591-8.241c.725-1.012,1.544-2.033,2.413-3.043a11.931,11.931,0,0,1-.218,20.877c-.874-1.02-1.7-2.042-2.423-3.062A8.131,8.131,0,0,0,1369.981,234.829Zm-1.743,10.347a12.9,12.9,0,0,0,.218-22.379c.937-1.055,1.917-2.093,2.892-3.094a17.051,17.051,0,0,1-.27,28.593l-.129-.13C1370.037,247.175,1369.119,246.177,1368.238,245.176Zm3.3,3.588a17.685,17.685,0,0,0,.264-29.528c.965-.982,1.917-1.923,2.807-2.8l.424-.39a22.175,22.175,0,0,1-.251,35.934C1373.652,250.887,1372.561,249.794,1371.542,248.764Zm3.475,3.434a22.481,22.481,0,0,0,.262-36.377c4.432-4.072,8.975-8.065,13.311-8.065a6.671,6.671,0,0,1,1.618.2c4.945.875,11.286,7.237,15.963,11.965a43.513,43.513,0,0,0-7.924,6.285c-4.112,4.067-9.743,9.635-10.53,14.086a7.663,7.663,0,0,0,.669,5.091,41.635,41.635,0,0,0-4.659,3.9,58.391,58.391,0,0,0-5.429,5.9C1377.185,254.23,1376.083,253.218,1375.016,252.2Zm26.38,19.286c-3.79,3.49-6.69,5.908-9.518,5.206-3.05-.54-7.011-4.545-9.894-7.461-3.49-3.79-5.907-6.69-5.206-9.517a9.251,9.251,0,0,1,1.654-3.458c2.905,2.4,5.875,4.311,8.517,4.782a7.379,7.379,0,0,0,1.778.214c3.056,0,6.142-1.813,9.2-4.255,3.1,3.018,6.627,6.1,9.775,7.291A44.62,44.62,0,0,1,1401.4,271.484Zm31.493-28.407c-.752,4.245-6.286,9.717-10.316,13.7-4.41,4.06-8.969,8.261-13.224,7.2-.18-.032-.362-.076-.546-.124a7.464,7.464,0,0,0,.779-2.117c.846-3.407-2.322-6.847-5.4-10.184l-.088-.089c4.709-4.671,10.589-10.731,11.453-15.628,1.293-5.207-3.4-10.531-8.158-15.7a7.873,7.873,0,0,1,3.212-.77,5.6,5.6,0,0,1,1.352.163l.025.006c4.244.75,9.717,6.284,13.7,10.316C1429.745,234.262,1433.944,238.823,1432.889,243.077Z" transform="translate(-1361.527 -207.009)"/></svg>