<svg id="instagram-logo" xmlns="http://www.w3.org/2000/svg" width="18" height="18" viewBox="0 0 18 18">
  <path id="Path_48" data-name="Path 48" d="M13.033,0H4.967A4.973,4.973,0,0,0,0,4.967v8.065A4.973,4.973,0,0,0,4.967,18h8.065A4.973,4.973,0,0,0,18,13.033V4.967A4.973,4.973,0,0,0,13.033,0ZM16.4,13.033a3.374,3.374,0,0,1-3.37,3.37H4.967a3.374,3.374,0,0,1-3.37-3.37V4.967A3.374,3.374,0,0,1,4.967,1.6h8.065a3.374,3.374,0,0,1,3.37,3.37v8.065Z" fill="#fff"/>
  <path id="Path_49" data-name="Path 49" d="M45.6,40.97A4.629,4.629,0,1,0,50.226,45.6,4.634,4.634,0,0,0,45.6,40.97Zm0,7.664A3.035,3.035,0,1,1,48.632,45.6,3.038,3.038,0,0,1,45.6,48.634Z" transform="translate(-36.597 -36.599)" fill="#fff"/>
  <path id="Path_50" data-name="Path 50" d="M120.213,28.251a1.292,1.292,0,1,0,.914.378A1.3,1.3,0,0,0,120.213,28.251Z" transform="translate(-106.456 -25.29)" fill="#fff"/>
</svg>
