<svg xmlns="http://www.w3.org/2000/svg" width="316.674" height="80.03" viewBox="0 0 316.674 80.03">
  <g id="Group_141" data-name="Group 141" transform="translate(-54.597 -477.023)">
    <g id="Group_135" data-name="Group 135" transform="translate(148.766 494.883)">
      <g id="Group_133" data-name="Group 133" transform="translate(0.118)">
        <path id="Path_238" data-name="Path 238" d="M224.268,527.922l-.125.25a3.91,3.91,0,0,1-2.034.532,3.46,3.46,0,0,1-2.222-.751,7.786,7.786,0,0,1-2.034-3.349l-.156-.407h-9.388l-1.69,4.131h-3.629l8.761-20.34h2.6l6.947,15.959c.532,1.221.814,1.658,1.471,1.658a1.245,1.245,0,0,0,.688-.219l.219.094Zm-7.667-6.353-3.6-8.824-3.6,8.824Z" transform="translate(-202.989 -506.173)" fill="#fff"/>
        <path id="Path_239" data-name="Path 239" d="M255.705,527.378l-.125.219a3.265,3.265,0,0,1-1.878.532,2.842,2.842,0,0,1-2.91-2.253,7.556,7.556,0,0,1-5.539,2.253c-4.663,0-7.886-3.63-7.886-8.2,0-4.6,3.254-8.2,7.854-8.2a7.8,7.8,0,0,1,5.163,1.909v-6.759l3.16-.47.219.156v17.211c0,.845.156,1.377.72,1.377a.806.806,0,0,0,.5-.188l.219.094Zm-5.038-7.447c0-3.443-2.222-5.226-4.882-5.226a5.234,5.234,0,0,0,0,10.451C248.477,525.156,250.667,523.341,250.667,519.931Z" transform="translate(-215.524 -505.599)" fill="#fff"/>
        <path id="Path_240" data-name="Path 240" d="M280.071,515.567l-.877,2.5-.219.093a3.431,3.431,0,0,0-1.846-.438c-2,0-3.38,1.564-3.38,4.131v8.949h-3.411V519.134c0-.844-.125-1.377-.72-1.377a.806.806,0,0,0-.5.188l-.219-.094-.5-2.316.125-.219a3.255,3.255,0,0,1,1.94-.532,2.669,2.669,0,0,1,2.723,2,5.409,5.409,0,0,1,4.287-2,5.837,5.837,0,0,1,2.472.532Z" transform="translate(-226.838 -508.651)" fill="#fff"/>
        <path id="Path_241" data-name="Path 241" d="M289.085,507.479a2.363,2.363,0,1,1,2.347,2.379A2.364,2.364,0,0,1,289.085,507.479Zm4.068,19.808V511.64h-3.411v15.646Z" transform="translate(-234.38 -505.132)" fill="#fff"/>
        <path id="Path_242" data-name="Path 242" d="M316.86,530.43l-.125.219a3.267,3.267,0,0,1-1.878.532,2.814,2.814,0,0,1-2.847-2.034,7.776,7.776,0,0,1-5.351,2.034c-3.223,0-6.2-1.784-6.2-5.163,0-3.474,3.129-5.069,6.978-5.069a11.774,11.774,0,0,1,4.131.72v-.877c0-2.253-2.034-3.349-4.193-3.349a5.94,5.94,0,0,0-4.256,1.815h-.25l-1.721-1.627v-.25a9.113,9.113,0,0,1,6.54-2.6c3.38,0,7.229,1.5,7.229,6.008v6.039c0,.845.156,1.377.719,1.377a.8.8,0,0,0,.5-.188l.219.094Zm-5.288-6.446a10.521,10.521,0,0,0-3.692-.72c-2.472,0-4.006,1.064-4.006,2.754,0,1.784,1.69,2.66,3.473,2.66,2.16,0,4.225-1.346,4.225-3.536Z" transform="translate(-238.529 -508.651)" fill="#fff"/>
        <path id="Path_243" data-name="Path 243" d="M344.783,521.387v9.419h-3.411v-9.137c0-2.379-1.408-3.943-3.755-3.943a3.729,3.729,0,0,0-3.943,3.943v9.137h-3.442V519.134c0-.844-.125-1.377-.72-1.377a.806.806,0,0,0-.5.188l-.219-.094-.5-2.316.125-.219a3.4,3.4,0,0,1,1.94-.532,2.737,2.737,0,0,1,2.816,1.972,7.11,7.11,0,0,1,5.1-1.972C342.248,514.784,344.783,517.476,344.783,521.387Z" transform="translate(-248.676 -508.651)" fill="#fff"/>
        <path id="Path_244" data-name="Path 244" d="M375.177,530.43l-.125.219a3.261,3.261,0,0,1-1.877.532,2.815,2.815,0,0,1-2.848-2.034,7.776,7.776,0,0,1-5.351,2.034c-3.223,0-6.2-1.784-6.2-5.163,0-3.474,3.129-5.069,6.978-5.069a11.774,11.774,0,0,1,4.131.72v-.877c0-2.253-2.034-3.349-4.193-3.349a5.941,5.941,0,0,0-4.256,1.815h-.25l-1.721-1.627v-.25a9.113,9.113,0,0,1,6.541-2.6c3.379,0,7.228,1.5,7.228,6.008v6.039c0,.845.156,1.377.72,1.377a.807.807,0,0,0,.5-.188l.219.094Zm-5.288-6.446a10.521,10.521,0,0,0-3.692-.72c-2.472,0-4.005,1.064-4.005,2.754,0,1.784,1.69,2.66,3.474,2.66,2.159,0,4.224-1.346,4.224-3.536Z" transform="translate(-259.792 -508.651)" fill="#fff"/>
        <path id="Path_245" data-name="Path 245" d="M399.562,528.328l2.347-20.34h2.315l6.79,15.584,6.759-15.584h2.315l1.784,15.709c.156,1.471.438,1.909,1.032,1.909a.907.907,0,0,0,.626-.219l.25.094.595,2.441-.125.25a3.644,3.644,0,0,1-1.94.532c-1.94,0-3.254-1.158-3.536-3.411l-1.127-10.076-5.633,13.111h-2.034l-5.727-13.205-1.345,13.205Z" transform="translate(-274.661 -506.173)" fill="#fff"/>
        <path id="Path_246" data-name="Path 246" d="M441.773,507.479a2.363,2.363,0,1,1,2.347,2.379A2.364,2.364,0,0,1,441.773,507.479Zm4.068,19.808V511.64H442.43v15.646Z" transform="translate(-290.052 -505.132)" fill="#fff"/>
        <path id="Path_247" data-name="Path 247" d="M471.421,515.535l-.5,2.316-.219.094a.807.807,0,0,0-.5-.188c-.595,0-.72.532-.72,1.377v8.949c0,5.164-3.786,7.479-8.2,7.479a9,9,0,0,1-7.26-3.192v-.219l1.565-1.878h.219a6.821,6.821,0,0,0,5.508,2.6c2.692,0,4.882-1.377,4.882-4.381v-.72a7.92,7.92,0,0,1-5.1,1.752,7.359,7.359,0,0,1-7.7-7.385c0-4.162,3.254-7.354,7.73-7.354a7.911,7.911,0,0,1,5.414,2.034,2.742,2.742,0,0,1,2.847-2.034,3.294,3.294,0,0,1,1.909.532Zm-5.163,6.634a4.71,4.71,0,0,0-9.419-.031,4.71,4.71,0,0,0,9.419.031Z" transform="translate(-294.29 -508.651)" fill="#fff"/>
        <path id="Path_248" data-name="Path 248" d="M501.9,530.646l-.125.219a3.191,3.191,0,0,1-1.94.532,2.76,2.76,0,0,1-2.786-1.94,6.773,6.773,0,0,1-4.85,1.94c-3.974,0-6.446-2.5-6.446-6.384v-9.638h3.411v9.357a3.373,3.373,0,0,0,3.6,3.724,3.7,3.7,0,0,0,3.818-3.943v-9.138h3.38v11.672c0,.845.156,1.377.719,1.377a.806.806,0,0,0,.5-.188l.219.094Z" transform="translate(-306.089 -508.867)" fill="#fff"/>
        <path id="Path_249" data-name="Path 249" d="M517.458,523.89a5.017,5.017,0,0,0,5.32,4.568,6.683,6.683,0,0,0,5.007-2.1H528l1.784,1.6v.25c-1.658,2.1-4.568,2.973-7.072,2.973-4.537,0-8.637-2.879-8.637-8.136a7.921,7.921,0,0,1,8.2-8.261,7.733,7.733,0,0,1,8.073,7.98,5.586,5.586,0,0,1-.094,1.127Zm0-2.19h9.513a4.42,4.42,0,0,0-4.663-4.257A4.6,4.6,0,0,0,517.458,521.7Z" transform="translate(-316.415 -508.651)" fill="#fff"/>
        <path id="Path_250" data-name="Path 250" d="M544.567,506.882l3.16-.47.25.156v17.211c0,.845.125,1.377.688,1.377a.828.828,0,0,0,.532-.188l.219.094.5,2.316-.126.219a3.441,3.441,0,0,1-1.971.532c-2.16,0-3.255-1.44-3.255-3.6Z" transform="translate(-327.532 -505.599)" fill="#fff"/>
      </g>
      <g id="Group_134" data-name="Group 134" transform="translate(0 34.045)">
        <path id="Path_251" data-name="Path 251" d="M202.8,562.664a3.76,3.76,0,1,1,3.737,3.938A3.706,3.706,0,0,1,202.8,562.664Zm6.442,0a2.7,2.7,0,1,0-5.372,0,2.7,2.7,0,1,0,5.372,0Z" transform="translate(-202.803 -558.713)" fill="#b7b7ea"/>
        <path id="Path_252" data-name="Path 252" d="M221.539,558.971v.944h-2.453v6.6h-1.032v-6.6h-2.441v-.944Z" transform="translate(-207.474 -558.807)" fill="#b7b7ea"/>
        <path id="Path_253" data-name="Path 253" d="M225.968,562.664A3.76,3.76,0,1,1,229.7,566.6,3.706,3.706,0,0,1,225.968,562.664Zm6.442,0a2.7,2.7,0,1,0-5.372,0,2.7,2.7,0,1,0,5.372,0Z" transform="translate(-211.249 -558.713)" fill="#b7b7ea"/>
        <path id="Path_254" data-name="Path 254" d="M246.222,561.487a2.316,2.316,0,0,1-1.661,2.353v.05l1.85,2.428v.2h-1.12l-1.888-2.5h-2.05v2.5h-1.032v-7.548h3.019C245.127,558.971,246.222,559.889,246.222,561.487Zm-2.919-1.573h-1.95v3.171h2.038c1.032,0,1.762-.5,1.762-1.573S244.422,559.915,243.3,559.915Z" transform="translate(-216.482 -558.807)" fill="#b7b7ea"/>
        <path id="Path_255" data-name="Path 255" d="M258.259,561.487a2.315,2.315,0,0,1-1.66,2.353v.05l1.85,2.428v.2h-1.12l-1.887-2.5h-2.05v2.5h-1.032v-7.548h3.019C257.165,558.971,258.259,559.889,258.259,561.487Zm-2.918-1.573h-1.95v3.171h2.038c1.032,0,1.761-.5,1.761-1.573S256.46,559.915,255.341,559.915Z" transform="translate(-220.872 -558.807)" fill="#b7b7ea"/>
        <path id="Path_256" data-name="Path 256" d="M264.4,566.519v-7.548h1.032v7.548Z" transform="translate(-225.26 -558.807)" fill="#b7b7ea"/>
        <path id="Path_257" data-name="Path 257" d="M274.969,566.519l-4.592-5.724v5.724h-1.032v-7.548h.768l4.579,5.674v-5.674h1.045v7.548Z" transform="translate(-227.065 -558.807)" fill="#b7b7ea"/>
        <path id="Path_258" data-name="Path 258" d="M281.957,562.664a3.76,3.76,0,1,1,3.736,3.938A3.706,3.706,0,0,1,281.957,562.664Zm6.442,0a2.7,2.7,0,1,0-5.372,0,2.7,2.7,0,1,0,5.372,0Z" transform="translate(-231.663 -558.713)" fill="#b7b7ea"/>
        <path id="Path_259" data-name="Path 259" d="M296.31,558.971h1.032v6.606h3.837v.943H296.31Z" transform="translate(-236.897 -558.807)" fill="#b7b7ea"/>
        <path id="Path_260" data-name="Path 260" d="M311.037,566.519l-.667-1.623h-3.837l-.667,1.623h-1.082l3.171-7.548h.994l3.183,7.548Zm-1.044-2.542-1.535-3.736-1.548,3.736Z" transform="translate(-239.986 -558.807)" fill="#b7b7ea"/>
        <path id="Path_261" data-name="Path 261" d="M324.127,561.487a2.315,2.315,0,0,1-1.66,2.353v.05l1.85,2.428v.2H323.2l-1.887-2.5h-2.05v2.5h-1.032v-7.548h3.019C323.033,558.971,324.127,559.889,324.127,561.487Zm-2.918-1.573h-1.95v3.171H321.3c1.032,0,1.761-.5,1.761-1.573S322.328,559.915,321.209,559.915Z" transform="translate(-244.888 -558.807)" fill="#b7b7ea"/>
        <path id="Path_262" data-name="Path 262" d="M330.264,566.519v-7.548H331.3v7.548Z" transform="translate(-249.277 -558.807)" fill="#b7b7ea"/>
        <path id="Path_263" data-name="Path 263" d="M340.837,566.519l-4.592-5.724v5.724h-1.031v-7.548h.768l4.579,5.674v-5.674H341.6v7.548Z" transform="translate(-251.081 -558.807)" fill="#b7b7ea"/>
        <path id="Path_264" data-name="Path 264" d="M351.385,563.155v-.919h3.586v.629c0,2.265-1.271,3.737-3.41,3.737a3.949,3.949,0,0,1,.038-7.889,3.525,3.525,0,0,1,2.679.982l-.616.792a2.924,2.924,0,0,0-2.063-.792,2.738,2.738,0,0,0-2.7,2.969,2.706,2.706,0,0,0,2.667,2.956,2.243,2.243,0,0,0,2.328-2.416v-.05Z" transform="translate(-255.679 -558.713)" fill="#b7b7ea"/>
        <path id="Path_265" data-name="Path 265" d="M360.674,562.664a3.76,3.76,0,1,1,3.737,3.938A3.706,3.706,0,0,1,360.674,562.664Zm6.442,0a2.7,2.7,0,1,0-5.372,0,2.7,2.7,0,1,0,5.372,0Z" transform="translate(-260.364 -558.713)" fill="#b7b7ea"/>
        <path id="Path_266" data-name="Path 266" d="M375.028,558.971h1.032v6.606H379.9v.943h-4.869Z" transform="translate(-265.598 -558.807)" fill="#b7b7ea"/>
        <path id="Path_267" data-name="Path 267" d="M383.64,562.664a3.76,3.76,0,1,1,3.737,3.938A3.706,3.706,0,0,1,383.64,562.664Zm6.442,0a2.7,2.7,0,1,0-5.372,0,2.7,2.7,0,1,0,5.372,0Z" transform="translate(-268.738 -558.713)" fill="#b7b7ea"/>
        <path id="Path_268" data-name="Path 268" d="M400.782,563.155v-.919h3.586v.629c0,2.265-1.271,3.737-3.41,3.737a3.949,3.949,0,0,1,.038-7.889,3.524,3.524,0,0,1,2.679.982l-.616.792a2.924,2.924,0,0,0-2.063-.792,2.738,2.738,0,0,0-2.7,2.969,2.706,2.706,0,0,0,2.667,2.956,2.243,2.243,0,0,0,2.328-2.416v-.05Z" transform="translate(-273.69 -558.713)" fill="#b7b7ea"/>
        <path id="Path_269" data-name="Path 269" d="M410.843,566.519v-7.548h1.032v7.548Z" transform="translate(-278.656 -558.807)" fill="#b7b7ea"/>
        <path id="Path_270" data-name="Path 270" d="M417.718,565.633c1.183,0,1.686-.491,1.686-1.2,0-.642-.39-.969-1.875-1.409-1.7-.515-2.491-1.069-2.491-2.239,0-1.258.994-2.076,2.717-2.076a3.6,3.6,0,0,1,2.542.755l-.567.855a3.031,3.031,0,0,0-1.975-.642c-.956,0-1.61.39-1.61,1.095,0,.566.44.856,1.85,1.271,1.874.541,2.529,1.207,2.529,2.353,0,1.245-.931,2.2-2.78,2.2a3.86,3.86,0,0,1-2.743-.919l.566-.78A3.389,3.389,0,0,0,417.718,565.633Z" transform="translate(-280.172 -558.713)" fill="#b7b7ea"/>
        <path id="Path_271" data-name="Path 271" d="M431,558.971v.944h-2.453v6.6h-1.032v-6.6h-2.441v-.944Z" transform="translate(-283.846 -558.807)" fill="#b7b7ea"/>
        <path id="Path_272" data-name="Path 272" d="M440.22,566.519l-.667-1.623h-3.837l-.667,1.623h-1.082l3.17-7.548h.994l3.183,7.548Zm-1.045-2.542-1.534-3.736-1.548,3.736Z" transform="translate(-287.088 -558.807)" fill="#b7b7ea"/>
      </g>
    </g>
    <g id="Group_140" data-name="Group 140" transform="translate(54.597 477.023)">
      <g id="Group_136" data-name="Group 136" transform="translate(16.492 55.411)">
        <path id="Path_273" data-name="Path 273" d="M117.221,573.836c-1.634,2.843-4.711,5.945-7.588,8.793-4.03,3.711-7.7,6.963-11.274,6.073-3.5-.617-7.771-4.83-11.584-8.682-3.711-4.03-6.962-7.7-6.073-11.274a11.51,11.51,0,0,1,2.23-4.516c3.469,2.92,6.882,5.15,9.938,5.691,4.047,1,8.176-1.277,12.529-4.792C109.39,569.035,113.556,572.661,117.221,573.836Z" transform="translate(-80.553 -564.23)" fill="#e9b8e0"/>
      </g>
      <g id="Group_137" data-name="Group 137">
        <path id="Path_274" data-name="Path 274" d="M106.763,558.423c-4.354,3.515-8.482,5.8-12.529,4.792-3.056-.541-6.469-2.771-9.938-5.691a64.125,64.125,0,0,1,6.452-7.069,45.231,45.231,0,0,1,5.584-4.617c1.5,3.081,4.371,6.269,7.469,9.631C104.771,556.448,105.763,557.448,106.763,558.423Z" transform="translate(-65.426 -502.114)" fill="#f2e4fa"/>
        <path id="Path_275" data-name="Path 275" d="M106.05,491.514c-3.039,1.519-6.171,4.345-9.482,7.392-5.307,5.252-11.108,11.129-11.959,15.951a8.537,8.537,0,0,0,.894,5.89,45.236,45.236,0,0,0-5.584,4.617,64.13,64.13,0,0,0-6.452,7.069c-2.962-2.489-5.963-5.485-8.805-8.362-6-6.516-11.261-12.461-9.827-18.24,1-5.664,7.814-12.572,14.048-18.739,6.52-6,12.466-11.265,18.241-9.831,5.665,1,12.576,7.818,18.743,14.053C105.926,491.382,105.991,491.446,106.05,491.514Z" transform="translate(-54.597 -477.023)" fill="#6a9fd2"/>
      </g>
      <g id="Group_138" data-name="Group 138" transform="translate(29.808 13.317)">
        <path id="Path_276" data-name="Path 276" d="M120.112,551.74c-.247.242-.489.485-.732.723-1.953,1.8-3.851,3.533-5.711,5.039-1-.975-1.992-1.975-2.962-2.954-3.1-3.362-5.967-6.55-7.469-9.631,1.949-1.26,3.835-1.919,5.69-1.456C112.307,544.058,116.4,548,120.112,551.74Z" transform="translate(-102.14 -514.51)" fill="#fff"/>
        <path id="Path_277" data-name="Path 277" d="M132.8,517.87c-.962,5.443-7.29,12.036-13.317,18.015-3.711-3.737-7.805-7.682-11.184-8.278-1.855-.464-3.741.2-5.69,1.456a8.537,8.537,0,0,1-.894-5.89c.851-4.822,6.652-10.7,11.959-15.951,3.311-3.047,6.443-5.873,9.482-7.392C129.079,506.273,134.22,512.15,132.8,517.87Z" transform="translate(-101.511 -498.655)" fill="#bad0f6"/>
        <path id="Path_278" data-name="Path 278" d="M132.571,568.253a8.749,8.749,0,0,1-1.094,2.792c-3.664-1.175-7.831-4.8-11.823-8.707,1.86-1.506,3.758-3.239,5.711-5.039.243-.238.485-.481.732-.723.132.136.268.268.4.4C130.209,561.009,133.461,564.682,132.571,568.253Z" transform="translate(-108.126 -519.345)" fill="#f1d0f4"/>
        <path id="Path_279" data-name="Path 279" d="M163.82,525.665c-.851,4.822-6.647,10.7-11.954,15.951-5.55,5.107-10.61,9.584-15.525,8.363a8.343,8.343,0,0,1-1.166-.3,8.748,8.748,0,0,0,1.094-2.792c.89-3.571-2.362-7.243-6.073-11.274-.132-.136-.268-.268-.4-.4,6.027-5.98,12.355-12.572,13.317-18.015,1.421-5.72-3.72-11.6-9.643-18.04a8.618,8.618,0,0,1,6.039-.971c4.822.851,10.7,6.648,15.951,11.959C160.565,515.69,165.042,520.75,163.82,525.665Z" transform="translate(-111.823 -497.981)" fill="#8a82cd"/>
      </g>
      <g id="Group_139" data-name="Group 139" transform="translate(0.152 9.424)">
        <path id="Path_280" data-name="Path 280" d="M77.865,491.855c-.089.085-.183.17-.276.255a25.436,25.436,0,0,1-.281,41.7c.089.085.174.17.264.251a25.783,25.783,0,0,0,.294-42.21Z" transform="translate(-63.029 -491.855)" fill="#fff"/>
        <path id="Path_281" data-name="Path 281" d="M71.428,498.044c-.179.179-.353.362-.527.541a19.559,19.559,0,0,1-.311,33.251c.174.179.353.358.532.541a20.291,20.291,0,0,0,.306-34.332Z" transform="translate(-60.58 -494.112)" fill="#fff"/>
        <path id="Path_282" data-name="Path 282" d="M65.272,504.494c-.255.29-.507.575-.754.864a13.691,13.691,0,0,1-.251,24.352c.243.289.494.579.749.872a14.809,14.809,0,0,0,.255-26.089Z" transform="translate(-58.275 -496.463)" fill="#fff"/>
        <path id="Path_283" data-name="Path 283" d="M59.628,511.393c-.3.421-.587.843-.855,1.26a7.822,7.822,0,0,1-.26,14.746c.264.426.553.851.86,1.282a9.312,9.312,0,0,0,.255-17.288Z" transform="translate(-56.177 -498.979)" fill="#fff"/>
        <path id="Path_284" data-name="Path 284" d="M55.525,519.063a11.337,11.337,0,0,0-.545,1.787,1.956,1.956,0,0,1-.145,3.885,10.353,10.353,0,0,0,.489,1.813,3.813,3.813,0,0,0,.2-7.486Z" transform="translate(-54.836 -501.775)" fill="#fff"/>
      </g>
    </g>
  </g>
</svg>
