<svg id="whatsapp-logo" xmlns="http://www.w3.org/2000/svg" width="18" height="18" viewBox="0 0 18 18">
  <path id="WhatsApp" d="M18,8.768A8.851,8.851,0,0,1,4.892,16.445L0,18l1.595-4.7A8.676,8.676,0,0,1,.327,8.768,8.837,8.837,0,0,1,18,8.768ZM9.164,1.4A7.409,7.409,0,0,0,1.734,8.768,7.294,7.294,0,0,0,3.15,13.09l-.928,2.738,2.855-.907A7.437,7.437,0,0,0,16.593,8.769,7.409,7.409,0,0,0,9.164,1.4Zm4.462,9.391c-.055-.089-.2-.143-.415-.251s-1.282-.628-1.48-.7-.343-.108-.488.107-.559.7-.686.842-.253.162-.469.054A5.929,5.929,0,0,1,8.346,9.775a6.48,6.48,0,0,1-1.2-1.488c-.126-.215-.013-.331.095-.438s.217-.251.325-.376a1.441,1.441,0,0,0,.216-.359.392.392,0,0,0-.018-.377c-.054-.107-.488-1.165-.668-1.6s-.361-.358-.487-.358-.271-.018-.415-.018a.8.8,0,0,0-.578.269,2.4,2.4,0,0,0-.758,1.793,4.159,4.159,0,0,0,.884,2.223,8.854,8.854,0,0,0,3.7,3.245c2.2.86,2.2.573,2.6.537A2.191,2.191,0,0,0,13.5,11.81,1.792,1.792,0,0,0,13.626,10.788Z" fill="#fff"/>
</svg>
